# xmcd
#
# Track frame offsets: 
#        150
#        22892
#        39398
#        53739
#        64091
#        74443
#        85083
#        96749
#        108435
#        117580
#        129331
#        140611
#
# Disc length: 2083 seconds
#
# Revision: 0
# Processed by: cddbd v1.5.2PL0 Copyright (c) Steve Scherf et al.
# Submitted via: ExactAudioCopyFreeDBPlugin 1.0
#
DISCID=a908210c
DTITLE=Ray Charles - Song Book Collection CD 3
DYEAR=2006
DGENRE=Blues
TTITLE0=I've Got A Woman
TTITLE1=I Believe To My Soul
TTITLE2=Kiss Me Baby
TTITLE3=Hey Now
TTITLE4=Sitting On Top Of The World
TTITLE5=They're Crazy About Me
TTITLE6=How Long Blues
TTITLE7=Baby Tell Me What I've Done
TTITLE8=All By Myself Alone
TTITLE9=Snow Is Falling
TTITLE10=If I Give You My Love
TTITLE11=I Won't Leave Till I Get What I Came For
EXTD=
EXTT0=
EXTT1=
EXTT2=
EXTT3=
EXTT4=
EXTT5=
EXTT6=
EXTT7=
EXTT8=
EXTT9=
EXTT10=
EXTT11=
PLAYORDER=
